<svg width="22" height="24" viewBox="0 0 22 24" fill="none" xmlns="http://www.w3.org/2000/svg">
<path fill-rule="evenodd" clip-rule="evenodd" d="M11.3996 0.690175L21.502 6.16479C21.6392 6.23918 21.7238 6.37665 21.7238 6.52543V17.4746C21.7238 17.6233 21.6392 17.7608 21.502 17.8352L11.3996 23.3098C11.2623 23.3842 11.0933 23.3842 10.956 23.3098L0.853648 17.8352C0.716392 17.7608 0.631836 17.6233 0.631836 17.4746V6.52543C0.631836 6.37665 0.716392 6.23918 0.853648 6.16479L10.956 0.690175C11.0933 0.615807 11.2623 0.615807 11.3996 0.690175Z" fill="#AE52FF"/>
<path fill-rule="evenodd" clip-rule="evenodd" d="M11.3807 22.2658L20.5364 17.3042C20.6737 17.2298 20.7582 17.0923 20.7582 16.9436V7.02043C20.7582 6.87165 20.6737 6.73418 20.5364 6.65979L11.3807 1.69818C11.2434 1.62381 11.0744 1.62381 10.9371 1.69818L1.78138 6.65979C1.64413 6.73418 1.55957 6.87165 1.55957 7.02043V16.9436C1.55957 17.0923 1.64413 17.2298 1.78138 17.3042L10.9371 22.2658C11.0744 22.3402 11.2434 22.3402 11.3807 22.2658Z" fill="url(#paint0_linear_231_8862)"/>
<path d="M17.2572 6.474H5.06055V7.122H17.2572V6.474Z" fill="#9013FE"/>
<path d="M17.2572 8.526H5.06055V9.174H17.2572V8.526Z" fill="#9013FE"/>
<path d="M17.2572 10.578H5.06055V11.226H17.2572V10.578Z" fill="#9013FE"/>
<path d="M17.2572 12.63H5.06055V13.278H17.2572V12.63Z" fill="#9013FE"/>
<path d="M17.2572 14.682H5.06055V15.33H17.2572V14.682Z" fill="#9013FE"/>
<path fill-rule="evenodd" clip-rule="evenodd" d="M11.1847 22.4312L1.56383 17.3396C1.51458 17.3135 1.49717 17.2549 1.52493 17.2087C1.53408 17.1934 1.54748 17.1808 1.5637 17.1722L11.2354 12.036L20.7602 17.1636C20.8092 17.19 20.8262 17.2488 20.798 17.2948C20.789 17.3096 20.7759 17.3219 20.7602 17.3304L11.2859 22.4308C11.2546 22.4477 11.2161 22.4478 11.1847 22.4312Z" fill="#4D00B4"/>
<path d="M6.0723 16.6356L13.8582 21.0996C13.9486 21.1514 14.0666 21.1247 14.1218 21.0398C14.177 20.955 14.1485 20.8442 14.0581 20.7924L6.27223 16.3284C6.18185 16.2766 6.06382 16.3033 6.00861 16.3882C5.9534 16.473 5.98192 16.5838 6.0723 16.6356Z" fill="#9013FE"/>
<path d="M10.752 14.1156L18.5379 18.5796C18.6283 18.6314 18.7463 18.6047 18.8015 18.5198C18.8567 18.435 18.8282 18.3242 18.7378 18.2724L10.9519 13.8084C10.8615 13.7566 10.7435 13.7833 10.6883 13.8682C10.6331 13.953 10.6616 14.0638 10.752 14.1156Z" fill="#9013FE"/>
<path fill-rule="evenodd" clip-rule="evenodd" d="M11.2268 16.157L14.7723 14.2363C14.8145 14.2134 14.8406 14.1711 14.8406 14.1253V6.81472C14.8406 6.76893 14.8145 6.72663 14.7723 6.70374L11.2268 4.78296C11.1846 4.76009 11.1326 4.76009 11.0903 4.78296L7.54483 6.70374C7.50259 6.72663 7.47656 6.76893 7.47656 6.81472V14.1253C7.47656 14.1711 7.50259 14.2134 7.54483 14.2363L11.0903 16.157C11.1326 16.1799 11.1846 16.1799 11.2268 16.157Z" fill="white"/>
<path d="M10.5549 9.3038L9.37074 8.18983C9.2996 8.12291 9.2996 8.0144 9.37074 7.94747L9.62838 7.7051C9.69952 7.63817 9.81488 7.63817 9.88603 7.7051L10.6837 8.45551L12.3924 6.8482C12.4635 6.78127 12.5789 6.78127 12.65 6.8482L12.9077 7.09057C12.9788 7.15749 12.9788 7.266 12.9077 7.33294L10.8126 9.30381C10.7414 9.37074 10.6261 9.37074 10.5549 9.3038Z" fill="#4D00B4"/>
<path fill-rule="evenodd" clip-rule="evenodd" d="M6.64353 18.353L9.34698 16.888C9.38921 16.8651 9.41523 16.8228 9.41523 16.777V13.847C9.41523 13.8012 9.38921 13.7589 9.34698 13.736L6.64353 12.271C6.6013 12.2481 6.54928 12.2481 6.50706 12.271L3.8036 13.736C3.76137 13.7589 3.73535 13.8012 3.73535 13.847V16.777C3.73535 16.8228 3.76137 16.8651 3.8036 16.888L6.50706 18.353C6.54928 18.3759 6.6013 18.3759 6.64353 18.353Z" fill="#EBD4FF"/>
<path d="M6.57517 16.554C7.30596 16.554 7.89839 15.9979 7.89839 15.312C7.89839 14.6261 7.30596 14.07 6.57517 14.07C5.84438 14.07 5.25195 14.6261 5.25195 15.312C5.25195 15.9979 5.84438 16.554 6.57517 16.554ZM6.57517 16.122C6.09857 16.122 5.7122 15.7593 5.7122 15.312C5.7122 14.8646 6.09857 14.502 6.57517 14.502C7.05178 14.502 7.43814 14.8646 7.43814 15.312C7.43814 15.7593 7.05178 16.122 6.57517 16.122Z" fill="#9013FE"/>
<path d="M14.1881 16.05C14.3152 16.05 14.4183 15.9533 14.4183 15.834C14.4183 15.7147 14.3152 15.618 14.1881 15.618C14.061 15.618 13.958 15.7147 13.958 15.834C13.958 15.9533 14.061 16.05 14.1881 16.05Z" fill="white"/>
<path d="M14.7643 16.374C14.8914 16.374 14.9944 16.2773 14.9944 16.158C14.9944 16.0387 14.8914 15.942 14.7643 15.942C14.6372 15.942 14.5342 16.0387 14.5342 16.158C14.5342 16.2773 14.6372 16.374 14.7643 16.374Z" fill="white"/>
<path d="M15.3395 16.698C15.4666 16.698 15.5696 16.6013 15.5696 16.482C15.5696 16.3627 15.4666 16.266 15.3395 16.266C15.2124 16.266 15.1094 16.3627 15.1094 16.482C15.1094 16.6013 15.2124 16.698 15.3395 16.698Z" fill="white"/>
<path d="M17.5641 17.994C17.6912 17.994 17.7942 17.8973 17.7942 17.778C17.7942 17.6587 17.6912 17.562 17.5641 17.562C17.437 17.562 17.334 17.6587 17.334 17.778C17.334 17.8973 17.437 17.994 17.5641 17.994Z" fill="white"/>
<path d="M8.89614 18.21C9.02323 18.21 9.12627 18.1133 9.12627 17.994C9.12627 17.8747 9.02323 17.778 8.89614 17.778C8.76905 17.778 8.66602 17.8747 8.66602 17.994C8.66602 18.1133 8.76905 18.21 8.89614 18.21Z" fill="white"/>
<path d="M10.8522 19.362C10.9793 19.362 11.0823 19.2653 11.0823 19.146C11.0823 19.0267 10.9793 18.93 10.8522 18.93C10.7251 18.93 10.6221 19.0267 10.6221 19.146C10.6221 19.2653 10.7251 19.362 10.8522 19.362Z" fill="white"/>
<path d="M11.4274 19.686C11.5545 19.686 11.6575 19.5893 11.6575 19.47C11.6575 19.3507 11.5545 19.254 11.4274 19.254C11.3003 19.254 11.1973 19.3507 11.1973 19.47C11.1973 19.5893 11.3003 19.686 11.4274 19.686Z" fill="white"/>
<defs>
<linearGradient id="paint0_linear_231_8862" x1="961.493" y1="22.3216" x2="961.493" y2="-2045.6" gradientUnits="userSpaceOnUse">
<stop stop-color="#9013FE"/>
<stop offset="1" stop-color="#4D00B4"/>
</linearGradient>
</defs>
</svg>
