<svg width="150" height="24" viewBox="0 0 150 24" fill="none" xmlns="http://www.w3.org/2000/svg">
<g clip-path="url(#clip0_220_9909)">
<mask id="mask0_220_9909" style="mask-type:luminance" maskUnits="userSpaceOnUse" x="0" y="0" width="150" height="24">
<path d="M149.868 0H0V24H149.868V0Z" fill="white"/>
</mask>
<g mask="url(#mask0_220_9909)">
<path d="M125.309 13.0102C125.292 14.1344 125.237 15.2589 125.148 16.372L125.109 16.8418L124.803 17.2054C122.924 19.4261 120.828 21.5347 118.621 23.4257L118.259 23.7334L117.792 23.7724C114.901 24.0017 111.937 24.0017 109.046 23.7724L108.579 23.7334L108.218 23.4257C106.01 21.5347 103.914 19.4261 102.035 17.2054L101.73 16.8418L101.691 16.372C101.463 13.4632 101.463 10.4818 101.691 7.57295L101.73 7.10315L102.035 6.73962C103.914 4.51889 106.01 2.40993 108.218 0.519323L108.579 0.211637L109.046 0.172658C110.147 0.082975 111.281 0.0326131 112.393 0.0101929C112.437 1.10123 112.804 2.10225 113.399 2.93597C112.181 2.93597 110.954 2.98046 109.752 3.06428C107.912 4.66997 106.161 6.43192 104.565 8.28355C104.392 10.7278 104.392 13.2172 104.565 15.6614C106.161 17.5131 107.912 19.275 109.752 20.8807C112.182 21.0539 114.656 21.0539 117.086 20.8807C118.926 19.275 120.678 17.5131 122.274 15.6614C122.357 14.4535 122.401 13.212 122.401 11.9927C123.23 12.5856 124.23 12.9654 125.309 13.0102ZM124.458 9.83302C124.464 9.83855 124.475 9.83855 124.486 9.84402L124.536 9.87202C124.508 9.86062 124.486 9.84955 124.458 9.83302Z" fill="#09090B"/>
<path d="M125.309 13.0102C125.292 14.1344 125.237 15.2589 125.148 16.372L125.109 16.8418L124.803 17.2054C122.924 19.4261 120.828 21.5347 118.621 23.4257L118.259 23.7334L117.792 23.7724C114.901 24.0017 111.937 24.0017 109.046 23.7724L108.579 23.7334L108.218 23.4257C106.01 21.5347 103.914 19.4261 102.035 17.2054L101.73 16.8418L101.691 16.372C101.463 13.4632 101.463 10.4818 101.691 7.57295L101.73 7.10315L102.035 6.73962C103.914 4.51889 106.01 2.40993 108.218 0.519323L108.579 0.211637L109.046 0.172658C110.147 0.082975 111.281 0.0326131 112.393 0.0101929C112.437 1.10123 112.804 2.10225 113.399 2.93597C112.181 2.93597 110.954 2.98046 109.752 3.06428C107.912 4.66997 106.161 6.43192 104.565 8.28355C104.392 10.7278 104.392 13.2172 104.565 15.6614C106.161 17.5131 107.912 19.275 109.752 20.8807C112.182 21.0539 114.656 21.0539 117.086 20.8807C118.926 19.275 120.678 17.5131 122.274 15.6614C122.357 14.4535 122.401 13.212 122.401 11.9927C123.23 12.5856 124.23 12.9654 125.309 13.0102ZM124.458 9.83302C124.464 9.83855 124.475 9.83855 124.486 9.84402L124.536 9.87202C124.508 9.86062 124.486 9.84955 124.458 9.83302Z" fill="url(#paint0_linear_220_9909)"/>
<path fill-rule="evenodd" clip-rule="evenodd" d="M124.523 9.89789L125.285 10.2648L125.299 11.1782C125.307 11.8004 125.306 12.4237 125.295 13.0469C124.213 13.0026 123.214 12.6354 122.39 12.0384C121.04 11.0593 120.16 9.46103 120.16 7.65463C120.16 6.29542 119.067 5.19248 117.722 5.19248C115.932 5.19248 114.348 4.305 113.375 2.94302L113.374 2.94163C112.781 2.10984 112.416 1.10132 112.372 0.00979037C112.989 -0.00196907 113.606 -0.00300667 114.223 0.00563997L115.128 0.0191288L115.517 0.844002C115.909 1.6751 116.75 2.25026 117.722 2.25026C120.676 2.25026 123.075 4.67162 123.075 7.65463C123.075 8.6251 123.633 9.46176 124.443 9.86016C124.469 9.87296 124.496 9.8861 124.523 9.89789Z" fill="#09090B"/>
<path fill-rule="evenodd" clip-rule="evenodd" d="M124.523 9.89789L125.285 10.2648L125.299 11.1782C125.307 11.8004 125.306 12.4237 125.295 13.0469C124.213 13.0026 123.214 12.6354 122.39 12.0384C121.04 11.0593 120.16 9.46103 120.16 7.65463C120.16 6.29542 119.067 5.19248 117.722 5.19248C115.932 5.19248 114.348 4.305 113.375 2.94302L113.374 2.94163C112.781 2.10984 112.416 1.10132 112.372 0.00979037C112.989 -0.00196907 113.606 -0.00300667 114.223 0.00563997L115.128 0.0191288L115.517 0.844002C115.909 1.6751 116.75 2.25026 117.722 2.25026C120.676 2.25026 123.075 4.67162 123.075 7.65463C123.075 8.6251 123.633 9.46176 124.443 9.86016C124.469 9.87296 124.496 9.8861 124.523 9.89789Z" fill="url(#paint1_linear_220_9909)"/>
<path fill-rule="evenodd" clip-rule="evenodd" d="M125.174 3.3333C124.178 3.50788 123.074 3.50614 122.077 3.32878C121.908 2.29939 121.91 1.15836 122.082 0.129667C123.078 -0.0449128 124.183 -0.0431736 125.179 0.134188C125.348 1.16358 125.346 2.3046 125.174 3.3333Z" fill="#09090B"/>
<path fill-rule="evenodd" clip-rule="evenodd" d="M125.174 3.3333C124.178 3.50788 123.074 3.50614 122.077 3.32878C121.908 2.29939 121.91 1.15836 122.082 0.129667C123.078 -0.0449128 124.183 -0.0431736 125.179 0.134188C125.348 1.16358 125.346 2.3046 125.174 3.3333Z" fill="url(#paint2_linear_220_9909)"/>
<path d="M71.7363 10.9342C71.7528 9.81005 71.8084 8.68551 71.8976 7.57244L71.9365 7.10258L72.2425 6.73905C74.1211 4.51832 76.2178 2.40972 78.4249 0.518762L78.7863 0.211077L79.2535 0.172099C82.1445 -0.0572852 85.1081 -0.0572849 87.9991 0.1721L88.4663 0.211078L88.8277 0.518763C91.0354 2.40972 93.1308 4.51832 95.0108 6.73905L95.3161 7.10258L95.3551 7.57244C95.583 10.4813 95.583 13.4626 95.3551 16.3714L95.3161 16.8412L95.0108 17.2048C93.1308 19.4255 91.0354 21.5345 88.8277 23.4251L88.4663 23.7328L87.9991 23.7718C86.8982 23.8614 85.765 23.9118 84.6529 23.9342C84.6079 22.8432 84.2412 21.8422 83.6465 21.0084C84.8636 21.0084 86.0921 20.964 87.2934 20.8802C89.1337 19.2744 90.8848 17.5125 92.4806 15.6609C92.6524 13.2166 92.6524 10.7272 92.4806 8.28298C90.8848 6.43136 89.1337 4.66941 87.2934 3.06372C84.863 2.89056 82.389 2.89056 79.9592 3.06372C78.1196 4.66941 76.3678 6.43136 74.772 8.28298C74.6888 9.49098 74.6445 10.7324 74.6445 11.9518C73.8158 11.3588 72.8147 10.979 71.7363 10.9342ZM72.5868 14.1114C72.5815 14.1059 72.5703 14.1059 72.559 14.1004L72.5088 14.0724C72.5372 14.0838 72.559 14.0948 72.5868 14.1114Z" fill="#09090B"/>
<path d="M71.7363 10.9342C71.7528 9.81005 71.8084 8.68551 71.8976 7.57244L71.9365 7.10258L72.2425 6.73905C74.1211 4.51832 76.2178 2.40972 78.4249 0.518762L78.7863 0.211077L79.2535 0.172099C82.1445 -0.0572852 85.1081 -0.0572849 87.9991 0.1721L88.4663 0.211078L88.8277 0.518763C91.0354 2.40972 93.1308 4.51832 95.0108 6.73905L95.3161 7.10258L95.3551 7.57244C95.583 10.4813 95.583 13.4626 95.3551 16.3714L95.3161 16.8412L95.0108 17.2048C93.1308 19.4255 91.0354 21.5345 88.8277 23.4251L88.4663 23.7328L87.9991 23.7718C86.8982 23.8614 85.765 23.9118 84.6529 23.9342C84.6079 22.8432 84.2412 21.8422 83.6465 21.0084C84.8636 21.0084 86.0921 20.964 87.2934 20.8802C89.1337 19.2744 90.8848 17.5125 92.4806 15.6609C92.6524 13.2166 92.6524 10.7272 92.4806 8.28298C90.8848 6.43136 89.1337 4.66941 87.2934 3.06372C84.863 2.89056 82.389 2.89056 79.9592 3.06372C78.1196 4.66941 76.3678 6.43136 74.772 8.28298C74.6888 9.49098 74.6445 10.7324 74.6445 11.9518C73.8158 11.3588 72.8147 10.979 71.7363 10.9342ZM72.5868 14.1114C72.5815 14.1059 72.5703 14.1059 72.559 14.1004L72.5088 14.0724C72.5372 14.0838 72.559 14.0948 72.5868 14.1114Z" fill="url(#paint3_linear_220_9909)"/>
<path fill-rule="evenodd" clip-rule="evenodd" d="M72.5225 14.0827L71.7599 13.7179L71.746 12.8102C71.7381 12.1918 71.7388 11.5724 71.75 10.9531C72.8317 10.9971 73.8308 11.3621 74.6548 11.9553C76.0048 12.9284 76.8844 14.5168 76.8844 16.3121C76.8844 17.6629 77.978 18.759 79.3233 18.759C81.1128 18.759 82.6974 19.641 83.67 20.9946L83.6707 20.9959C84.2641 21.8226 84.6289 22.8249 84.6725 23.9097C84.0559 23.9214 83.4388 23.9224 82.8216 23.9138L81.9176 23.9004L81.5277 23.0806C81.1359 22.2547 80.2954 21.6831 79.3233 21.6831C76.3689 21.6831 73.9703 19.2767 73.9703 16.3121C73.9703 15.3475 73.4119 14.5161 72.6024 14.1201C72.576 14.1074 72.5489 14.0943 72.5225 14.0827Z" fill="#09090B"/>
<path fill-rule="evenodd" clip-rule="evenodd" d="M72.5225 14.0827L71.7599 13.7179L71.746 12.8102C71.7381 12.1918 71.7388 11.5724 71.75 10.9531C72.8317 10.9971 73.8308 11.3621 74.6548 11.9553C76.0048 12.9284 76.8844 14.5168 76.8844 16.3121C76.8844 17.6629 77.978 18.759 79.3233 18.759C81.1128 18.759 82.6974 19.641 83.67 20.9946L83.6707 20.9959C84.2641 21.8226 84.6289 22.8249 84.6725 23.9097C84.0559 23.9214 83.4388 23.9224 82.8216 23.9138L81.9176 23.9004L81.5277 23.0806C81.1359 22.2547 80.2954 21.6831 79.3233 21.6831C76.3689 21.6831 73.9703 19.2767 73.9703 16.3121C73.9703 15.3475 73.4119 14.5161 72.6024 14.1201C72.576 14.1074 72.5489 14.0943 72.5225 14.0827Z" fill="url(#paint4_linear_220_9909)"/>
<path fill-rule="evenodd" clip-rule="evenodd" d="M71.8709 20.6636C72.8667 20.4931 73.9716 20.4948 74.9674 20.668C75.1365 21.6735 75.1352 22.788 74.9634 23.7928C73.9669 23.9633 72.8621 23.9616 71.8663 23.7884C71.6971 22.7829 71.6991 21.6684 71.8709 20.6636Z" fill="#09090B"/>
<path fill-rule="evenodd" clip-rule="evenodd" d="M71.8709 20.6636C72.8667 20.4931 73.9716 20.4948 74.9674 20.668C75.1365 21.6735 75.1352 22.788 74.9634 23.7928C73.9669 23.9633 72.8621 23.9616 71.8663 23.7884C71.6971 22.7829 71.6991 21.6684 71.8709 20.6636Z" fill="url(#paint5_linear_220_9909)"/>
<path fill-rule="evenodd" clip-rule="evenodd" d="M13.7714 23.6704H0.0556641V0.812833H3.12259V20.838H13.7714V23.6704ZM24.1415 18.4993L22.091 23.6704H18.8281L28.0943 0.812833H30.3129L39.5461 23.6704H36.2184L34.185 18.4993H24.1415ZM33.123 15.7989L29.185 5.78265L25.2127 15.7989H33.123ZM62.6595 14.3164H54.8004V11.4842H65.8937V11.9453C65.8937 14.6019 65.4259 16.8309 64.4908 18.6312C63.5772 20.4097 62.2937 21.7492 60.6406 22.6494C59.0093 23.5499 57.1387 24 55.0288 24C53.441 24 51.9509 23.7035 50.559 23.1105C49.1887 22.4958 47.9814 21.6506 46.9372 20.5744C45.9149 19.4986 45.1104 18.247 44.523 16.8198C43.9356 15.3926 43.6419 13.8554 43.6419 12.2086C43.6419 10.5619 43.9356 9.03571 44.523 7.63058C45.1104 6.20338 45.9258 4.95187 46.97 3.87569C48.0139 2.79986 49.2321 1.96563 50.6243 1.37267C52.0382 0.779699 53.5716 0.483215 55.2247 0.483215C57.03 0.483215 58.6941 0.834579 60.2166 1.5373C61.7391 2.24003 63.0117 3.24993 64.034 4.56737L61.9131 6.70831C61.1955 5.65425 60.2491 4.85281 59.0746 4.30402C57.9002 3.73315 56.6167 3.44771 55.2247 3.44771C53.5716 3.44771 52.1034 3.82081 50.8199 4.56737C49.5583 5.31393 48.5688 6.34593 47.8508 7.66338C47.155 8.98078 46.8069 10.496 46.8069 12.2086C46.8069 13.9434 47.1656 15.4692 47.8836 16.7867C48.6012 18.1041 49.5692 19.1361 50.7874 19.8827C52.0053 20.6292 53.3975 21.0027 54.9635 21.0027C56.5513 21.0027 57.9217 20.6952 59.0746 20.0804C60.2491 19.4658 61.1517 18.5652 61.7825 17.3796C62.2427 16.4988 62.535 15.4779 62.6595 14.3164ZM135.064 6.68938V23.6704H131.997V0.812833H134.151L146.745 17.7244V0.812833H149.812V23.6704H147.659L135.064 6.68938Z" fill="#09090B"/>
<path fill-rule="evenodd" clip-rule="evenodd" d="M13.7714 23.6704H0.0556641V0.812833H3.12259V20.838H13.7714V23.6704ZM24.1415 18.4993L22.091 23.6704H18.8281L28.0943 0.812833H30.3129L39.5461 23.6704H36.2184L34.185 18.4993H24.1415ZM33.123 15.7989L29.185 5.78265L25.2127 15.7989H33.123ZM62.6595 14.3164H54.8004V11.4842H65.8937V11.9453C65.8937 14.6019 65.4259 16.8309 64.4908 18.6312C63.5772 20.4097 62.2937 21.7492 60.6406 22.6494C59.0093 23.5499 57.1387 24 55.0288 24C53.441 24 51.9509 23.7035 50.559 23.1105C49.1887 22.4958 47.9814 21.6506 46.9372 20.5744C45.9149 19.4986 45.1104 18.247 44.523 16.8198C43.9356 15.3926 43.6419 13.8554 43.6419 12.2086C43.6419 10.5619 43.9356 9.03571 44.523 7.63058C45.1104 6.20338 45.9258 4.95187 46.97 3.87569C48.0139 2.79986 49.2321 1.96563 50.6243 1.37267C52.0382 0.779699 53.5716 0.483215 55.2247 0.483215C57.03 0.483215 58.6941 0.834579 60.2166 1.5373C61.7391 2.24003 63.0117 3.24993 64.034 4.56737L61.9131 6.70831C61.1955 5.65425 60.2491 4.85281 59.0746 4.30402C57.9002 3.73315 56.6167 3.44771 55.2247 3.44771C53.5716 3.44771 52.1034 3.82081 50.8199 4.56737C49.5583 5.31393 48.5688 6.34593 47.8508 7.66338C47.155 8.98078 46.8069 10.496 46.8069 12.2086C46.8069 13.9434 47.1656 15.4692 47.8836 16.7867C48.6012 18.1041 49.5692 19.1361 50.7874 19.8827C52.0053 20.6292 53.3975 21.0027 54.9635 21.0027C56.5513 21.0027 57.9217 20.6952 59.0746 20.0804C60.2491 19.4658 61.1517 18.5652 61.7825 17.3796C62.2427 16.4988 62.535 15.4779 62.6595 14.3164ZM135.064 6.68938V23.6704H131.997V0.812833H134.151L146.745 17.7244V0.812833H149.812V23.6704H147.659L135.064 6.68938Z" fill="url(#paint6_linear_220_9909)"/>
</g>
</g>
<defs>
<linearGradient id="paint0_linear_220_9909" x1="122.511" y1="15.3423" x2="104.686" y2="8.19384" gradientUnits="userSpaceOnUse">
<stop stop-color="#91F1BD"/>
<stop offset="0.25" stop-color="#2BD5C1"/>
<stop offset="0.5" stop-color="#13CFC2"/>
<stop offset="1" stop-color="#079AC6"/>
</linearGradient>
<linearGradient id="paint1_linear_220_9909" x1="118.839" y1="13.0468" x2="118.839" y2="-0.000100696" gradientUnits="userSpaceOnUse">
<stop stop-color="#00D1FF"/>
<stop offset="1" stop-color="#0039CB"/>
</linearGradient>
<linearGradient id="paint2_linear_220_9909" x1="123.628" y1="3.463" x2="123.628" y2="-7.17687e-05" gradientUnits="userSpaceOnUse">
<stop stop-color="#00D1FF"/>
<stop offset="1" stop-color="#0039CB"/>
</linearGradient>
<linearGradient id="paint3_linear_220_9909" x1="74.5348" y1="8.60218" x2="92.3601" y2="15.7506" gradientUnits="userSpaceOnUse">
<stop stop-color="#91F1BD"/>
<stop offset="0.25" stop-color="#2BD5C1"/>
<stop offset="0.5" stop-color="#13CFC2"/>
<stop offset="1" stop-color="#079AC6"/>
</linearGradient>
<linearGradient id="paint4_linear_220_9909" x1="78.2066" y1="10.9531" x2="78.2066" y2="23.9195" gradientUnits="userSpaceOnUse">
<stop stop-color="#00D1FF"/>
<stop offset="1" stop-color="#0039CB"/>
</linearGradient>
<linearGradient id="paint5_linear_220_9909" x1="73.4172" y1="20.537" x2="73.4172" y2="23.9195" gradientUnits="userSpaceOnUse">
<stop stop-color="#00D1FF"/>
<stop offset="1" stop-color="#0039CB"/>
</linearGradient>
<linearGradient id="paint6_linear_220_9909" x1="58.864" y1="-9.82989" x2="63.7396" y2="20.529" gradientUnits="userSpaceOnUse">
<stop stop-color="#EDF2F2"/>
<stop offset="1" stop-color="white"/>
</linearGradient>
<clipPath id="clip0_220_9909">
<rect width="150" height="24" fill="white"/>
</clipPath>
</defs>
</svg>
